<svg width="40" height="40" viewBox="0 0 40 40" fill="none" xmlns="http://www.w3.org/2000/svg">
<g clip-path="url(#clip0_7_279)">
<path d="M20 37.5C15.3587 37.5 10.9075 35.6563 7.62563 32.3744C4.34374 29.0925 2.5 24.6413 2.5 20C2.5 15.3587 4.34374 10.9075 7.62563 7.62563C10.9075 4.34374 15.3587 2.5 20 2.5C24.6413 2.5 29.0925 4.34374 32.3744 7.62563C35.6563 10.9075 37.5 15.3587 37.5 20C37.5 24.6413 35.6563 29.0925 32.3744 32.3744C29.0925 35.6563 24.6413 37.5 20 37.5ZM20 40C25.3043 40 30.3914 37.8929 34.1421 34.1421C37.8929 30.3914 40 25.3043 40 20C40 14.6957 37.8929 9.60859 34.1421 5.85786C30.3914 2.10714 25.3043 0 20 0C14.6957 0 9.60859 2.10714 5.85786 5.85786C2.10714 9.60859 0 14.6957 0 20C0 25.3043 2.10714 30.3914 5.85786 34.1421C9.60859 37.8929 14.6957 40 20 40Z" fill="black"/>
<path d="M30.8275 23.75C31.0469 24.13 31.1625 24.5612 31.1625 25C31.1625 25.4388 31.0469 25.87 30.8275 26.25C29.7306 28.1509 28.1524 29.7294 26.2516 30.8265C24.3509 31.9237 22.1947 32.5009 20 32.5C17.8058 32.5005 15.6501 31.9231 13.7498 30.8259C11.8496 29.7288 10.2717 28.1505 9.17503 26.25C8.95571 25.8701 8.8402 25.4393 8.84009 25.0006C8.83998 24.562 8.95527 24.1311 9.17438 23.7511C9.3935 23.3711 9.70873 23.0555 10.0884 22.8359C10.4681 22.6163 10.8989 22.5004 11.3375 22.5H28.6625C29.1014 22.5 29.5325 22.6155 29.9125 22.835C30.2925 23.0544 30.6081 23.37 30.8275 23.75ZM17.5 16.25C17.5 18.32 16.38 16.25 15 16.25C13.62 16.25 12.5 18.32 12.5 16.25C12.5 14.18 13.62 12.5 15 12.5C16.38 12.5 17.5 14.18 17.5 16.25ZM27.5 16.25C27.5 18.32 26.38 16.25 25 16.25C23.62 16.25 22.5 18.32 22.5 16.25C22.5 14.18 23.62 12.5 25 12.5C26.38 12.5 27.5 14.18 27.5 16.25Z" fill="black"/>
</g>
<defs>
<clipPath id="clip0_7_279">
<rect width="40" height="40" fill="white"/>
</clipPath>
</defs>
</svg>
